<svg width="512" height="512" viewBox="0 0 512 512" xmlns="http://www.w3.org/2000/svg">
  <rect width="512" height="512" rx="112" fill="#0B0E14"/>
  <g transform="translate(256 256) scale(5.2) translate(-36 -36)">
    <path d="M36,38 C29,34 26,24 33,11 C34.5,8.5 37.5,8.5 39,11 C46,24 43,34 36,38 Z" fill="#4C6FFF" fill-opacity="0.92"/>
    <path d="M36,38 C29,34 26,24 33,11 C34.5,8.5 37.5,8.5 39,11 C46,24 43,34 36,38 Z" fill="#7C6FE8" fill-opacity="0.85" transform="rotate(120 36 36)"/>
    <path d="M36,38 C29,34 26,24 33,11 C34.5,8.5 37.5,8.5 39,11 C46,24 43,34 36,38 Z" fill="#E8A33D" fill-opacity="0.92" transform="rotate(240 36 36)"/>
    <circle cx="36" cy="36" r="4.2" fill="#F2EFE9"/>
  </g>
</svg>
